<?xml version="1.0" encoding="utf-8"?>
<!-- Generator: Adobe Illustrator 16.0.0, SVG Export Plug-In . SVG Version: 6.00 Build 0)  -->
<!DOCTYPE svg PUBLIC "-//W3C//DTD SVG 1.1//EN" "http://www.w3.org/Graphics/SVG/1.1/DTD/svg11.dtd">
<svg version="1.1" id="EBA8_cópia_4_xA0_Image_1_" xmlns="http://www.w3.org/2000/svg" xmlns:xlink="http://www.w3.org/1999/xlink"
	 x="0px" y="0px" width="224.5px" height="140.5px" viewBox="0 0 224.5 140.5" enable-background="new 0 0 224.5 140.5"
	 xml:space="preserve">
<g>
	<path fill-rule="evenodd" clip-rule="evenodd" fill="#0E486A" d="M48.582,58.634c1.014-9.244,12.912-15.632,22.07-5.889
		c0.857-0.613,0.418-1.511,0.434-2.254c0.076-3.319,0.012-6.643,0.104-9.961c0.178-6.343,2.591-10.244,9.183-12.058
		c1.281-0.353,3.417-0.541,4.736-0.353c3.856,0.551,6.925,2.89,8.944,6.342c0.406,0.695,0.779,0.812,1.201,0.001
		c1.798-3.46,4.864-5.534,8.485-6.218c1.638-0.31,3.959-0.18,5.042,0.083c7.542,1.833,9.708,7.346,9.418,14.41
		c-0.135,3.306-0.022,6.623-0.022,10.451c0.977-0.898,1.603-1.478,2.233-2.053c4.084-3.723,9.336-4.306,14.33-1.594
		c4.084,2.218,6.805,7.794,6.133,12.525c-0.07,0.496,0.025,1.026-0.743,0.978c-0.669-0.042-1.077-0.273-1.098-1.035
		c-0.033-1.244-0.015-2.506-0.224-3.726c-0.927-5.387-5.492-8.993-10.812-8.623c-5.479,0.381-9.492,4.356-9.789,9.811
		c-0.115,2.122-0.019,4.255-0.019,6.479c-1.771-0.42-1.941-1.505-1.933-2.868c0.045-7.33,0.024-14.66,0.021-21.989
		c-0.003-6.612-4.008-11.168-9.812-11.176c-6.016-0.009-10.21,4.551-10.21,11.1c0,2.167-0.013,4.333,0.007,6.499
		c0.008,0.833-0.067,1.433-1.177,1.435c-1.08,0.002-1.456-0.342-1.428-1.443c0.067-2.581,0.073-5.166,0.008-7.747
		c-0.138-5.371-4.351-9.62-9.681-9.836c-5.831-0.237-10.644,3.43-10.908,8.99c-0.35,7.315-0.147,14.656-0.181,21.986
		c-0.003,0.583,0.044,1.168,0.011,1.749c-0.044,0.756-0.651,0.955-1.235,0.967c-0.801,0.017-0.514-0.678-0.547-1.099
		c-0.073-0.912-0.077-1.829-0.118-2.744c-0.278-6.042-4.756-10.303-10.691-10.176c-5.662,0.122-10.044,4.674-10.064,10.593
		c-0.039,11.081-0.002,22.162-0.023,33.243c-0.002,1.027,0.492,2.676-1.658,1.848C48.572,83.069,48.577,70.852,48.582,58.634z"/>
	<path fill-rule="evenodd" clip-rule="evenodd" fill="#FE5F30" d="M103.164,95.988c-2.73-0.666-4.844-2.765-6.654-5.293
		c0,1.094-0.066,2.193,0.018,3.281c0.096,1.253-0.478,1.534-1.615,1.551c-1.239,0.019-1.291-0.652-1.291-1.574
		c0.013-13.979,0.021-27.957-0.012-41.936c-0.002-1.188,0.365-1.578,1.565-1.569c1.421,0.01,1.343,0.856,1.341,1.816
		c-0.012,6.155-0.006,12.311-0.006,18.607c0.288-0.17,0.53-0.231,0.641-0.387c3.515-4.948,8.735-7.083,14.308-5.834
		c5.205,1.167,8.435,4.909,9.408,11.235c0.809,5.248,0.113,10.266-2.945,14.784c-1.788,2.644-4.195,4.759-7.257,5.318
		C108.205,96.438,105.593,96.581,103.164,95.988z M96.584,80.688c0,1.164-0.07,2.334,0.013,3.492
		c0.307,4.269,3.558,8.225,7.552,9.262c4.714,1.225,8.749-0.164,11.378-4.055c2.766-4.092,3.19-8.712,2.429-13.41
		c-0.894-5.512-4.336-8.803-9.062-9.096c-5.862-0.364-9.976,2.411-11.836,7.879C96.393,76.714,96.603,78.704,96.584,80.688z"/>
	<path fill-rule="evenodd" clip-rule="evenodd" fill="#FE5F30" d="M129.664,95.988c-2.197-0.479-5.049-3.467-5.521-6.872
		c-0.658-4.756,1.878-8.496,6.963-10.107c3.754-1.188,7.678-1.502,11.553-1.971c1.816-0.219,2.146-0.965,1.991-2.576
		c-0.575-5.948-4.434-8.684-10.523-7.326c-2.534,0.565-4.774,1.8-6.913,3.473c-0.848-2.398,0.089-3.581,2.069-4.372
		c2.099-0.839,4.216-1.583,6.472-1.771c7.125-0.59,11.426,2.924,11.731,10.066c0.278,6.487,0.05,12.996,0.087,19.494
		c0.006,1.045-0.299,1.471-1.407,1.504c-1.287,0.037-1.548-0.545-1.483-1.657c0.069-1.211,0.016-2.429-0.202-3.771
		c-1.662,2.762-3.93,5.051-6.816,5.886C135.103,96.729,132.218,96.759,129.664,95.988z M144.695,82.152
		c-0.115-0.797,1.063-2.874-1.01-2.707c-4.451,0.36-8.996,0.598-13.203,2.351c-2.739,1.143-3.728,3.232-3.407,6.516
		c0.259,2.645,1.953,4.568,4.602,5.229C138.583,95.261,144.579,90.102,144.695,82.152z"/>
	<path fill-rule="evenodd" clip-rule="evenodd" fill="#FE5F30" d="M72.164,95.988c-9.133-1.919-12.709-18.019-5.893-26.604
		c3.375-4.25,8.83-6.015,14.102-4.522c5.391,1.526,7.542,5.628,8.286,10.717c0.712,4.864,0.644,4.874-4.347,4.874
		c-5.573,0-11.147,0.067-16.718-0.04c-1.724-0.033-2.076,0.549-1.954,2.141c0.658,8.614,7.298,13.164,15.611,10.637
		c1.994-0.606,3.791-1.623,5.628-2.769c0.742,1.843-0.017,2.965-1.517,3.881c-1.562,0.812-3.021,1.351-4.699,1.686
		C77.886,96.543,74.908,96.692,72.164,95.988z M75.758,77.989c2.915,0,5.83,0.002,8.744,0c0.834,0,1.72,0.154,1.523-1.23
		c-0.543-3.849-1.562-7.535-5.516-9.14c-3.901-1.584-7.723-1.004-10.944,1.888c-2.052,1.842-3.011,4.29-3.606,6.961
		c-0.309,1.385,0.155,1.555,1.305,1.537C70.095,77.962,72.927,77.991,75.758,77.989z"/>
	<path fill-rule="evenodd" clip-rule="evenodd" fill="#0C77BE" d="M186.155,92.683c-1.773,1.376-4.733,1.77-7.052,0.797
		c-2.228-0.936-2.609-2.78-2.397-4.927c0.065-0.657,0.061-1.331,0.001-1.989c-0.171-1.861,0.14-3.522,1.991-4.422
		c2.141-1.038,4.326-1.103,6.419,0.136c0.48,0.284,1.406,0.571,0.818,1.464c-0.426,0.646-0.938,1.035-1.841,0.453
		c-1.24-0.8-2.631-0.892-4.045-0.296c-1.141,0.48-1.388,1.401-1.184,2.444c0.233,1.199,1.181,0.527,1.789,0.477
		c2.817-0.232,5.876,0.013,6.509,3.169C187.263,90.479,187.192,91.62,186.155,92.683z M181.579,88.921
		c-0.977,0.183-2.522,0.061-2.47,1.356c0.062,1.513,1.704,1.538,2.905,1.538c1.052,0,2.544-0.215,2.509-1.417
		C184.475,88.723,182.753,89.185,181.579,88.921z"/>
	<path fill-rule="evenodd" clip-rule="evenodd" fill="#131313" d="M155.606,55.745c-2.291,1.204-4.306,2.262-6.528,3.43
		c-0.242-1.238-0.37-2.171,0.96-2.705c2.412-0.967,4.549-2.403,6.579-4c1.155-0.909,1.475-0.606,1.468,0.796
		c-0.037,8.486-0.029,16.974-0.002,25.46c0.003,0.951-0.063,1.573-1.269,1.604c-1.321,0.032-1.212-0.771-1.212-1.627
		c0.006-6.74,0.004-13.479,0.004-20.219C155.606,57.685,155.606,56.885,155.606,55.745z"/>
	<path fill-rule="evenodd" clip-rule="evenodd" fill="#131313" d="M167.635,55.746c-2.382,1.25-4.402,2.312-6.562,3.445
		c-0.355-1.108-0.339-2.115,0.584-2.499c2.929-1.218,5.465-3.068,7.922-4.865c0.897,0.511,0.54,1.163,0.542,1.67
		c0.025,8.156,0.035,16.312-0.007,24.469c-0.004,0.885,0.292,2.239-1.277,2.239c-1.431,0.002-1.156-1.513-1.164-2.351
		C167.607,70.62,167.635,63.385,167.635,55.746z"/>
	<path fill-rule="evenodd" clip-rule="evenodd" fill="#0C77BE" d="M171.173,88.202c-0.044,3.676-2.072,5.931-5.293,5.885
		c-3.037-0.045-4.892-2.326-5.021-5.91c-0.096-2.618,0.479-4.831,3.001-6.051C167.704,80.267,171.231,83.222,171.173,88.202z
		 M163.063,87.841c-0.005,2.636,0.99,4.043,2.901,4.102c1.839,0.057,3.027-1.503,3.049-3.999c0.022-2.623-0.986-4.011-2.943-4.052
		C164.115,83.851,163.068,85.226,163.063,87.841z"/>
	<path fill-rule="evenodd" clip-rule="evenodd" fill="#0C77BE" d="M152.774,91.889c1.855,0,3.712-0.002,5.568,0.001
		c0.674,0.001,1.316-0.04,1.363,0.966c0.05,1.079-0.525,1.208-1.382,1.2c-2.491-0.024-4.985-0.057-7.476,0.012
		c-1.295,0.037-1.568-0.48-1.342-1.651c0.315-1.635,1.391-2.598,2.739-3.336c1.308-0.718,2.654-1.364,3.966-2.073
		c0.682-0.369,1.33-0.957,1.221-1.731c-0.135-0.945-1.066-1.179-1.9-1.308c-1.162-0.178-2.36-0.276-3.332,0.543
		c-0.941,0.794-1.412-0.025-1.79-0.542c-0.632-0.864,0.325-1.151,0.813-1.437c1.162-0.68,2.454-1.098,3.809-0.921
		c2.053,0.268,4.039,0.905,4.562,3.198c0.494,2.16-1.074,3.349-2.697,4.302c-1.379,0.811-2.832,1.498-4.252,2.239
		C152.688,91.53,152.731,91.709,152.774,91.889z"/>
	<path fill-rule="evenodd" clip-rule="evenodd" fill="#0C77BE" d="M175.58,87.863c-0.001,1.663-0.03,3.327,0.013,4.989
		c0.02,0.791-0.151,1.248-1.059,1.27c-0.958,0.022-1.221-0.342-1.296-1.307c0.021-2.707,0.849-8.758-0.606-8.568
		c-0.243-0.531,0.413-1.549,0.795-2.267c0.249-0.469,0.858-0.444,1.362-0.395c0.812,0.079,0.798,0.684,0.795,1.288
		C175.576,84.537,175.581,86.2,175.58,87.863z"/>
</g>
</svg>
